# xmcd
#
# Track frame offsets: 
#        150
#        13798
#        30778
#        53647
#        71469
#        88813
#        109367
#        118180
#        135635
#        156581
#        181830
#
# Disc length: 2650 seconds
#
# Revision: 0
# Processed by: cddbd v1.5.2PL0 Copyright (c) Steve Scherf et al.
# Submitted via: ExactAudioCopyFreeDBPlugin 1.0
#
DISCID=900a580b
DTITLE=Student Loan - Moonlit Toasters
DYEAR=2014
DGENRE=Newgrass - Bluegrass
TTITLE0=Culture Shock
TTITLE1=Penicillin
TTITLE2=Screamin' By
TTITLE3=The Beer Grows Sticky In The Morning
TTITLE4=Roll Along
TTITLE5=Plum Wonkey
TTITLE6=Something Different
TTITLE7=I Don't Mind
TTITLE8=The Dictator Blues
TTITLE9=Ace of Spades
TTITLE10=Slippin' By
EXTD=
EXTT0=
EXTT1=
EXTT2=
EXTT3=
EXTT4=
EXTT5=
EXTT6=
EXTT7=
EXTT8=
EXTT9=
EXTT10=
PLAYORDER=
